<svg width="74" height="74" viewBox="0 0 74 74" fill="none" xmlns="http://www.w3.org/2000/svg">
<g filter="url(#filter0_d)">
<mask id="path-1-inside-1" fill="white">
<path fill-rule="evenodd" clip-rule="evenodd" d="M22 20C20.8954 20 20 20.8954 20 22V48C20 49.1046 20.8954 50 22 50H33L37 54L41 50H52C53.1046 50 54 49.1046 54 48V22C54 20.8954 53.1046 20 52 20H22Z"/>
</mask>
<path fill-rule="evenodd" clip-rule="evenodd" d="M22 20C20.8954 20 20 20.8954 20 22V48C20 49.1046 20.8954 50 22 50H33L37 54L41 50H52C53.1046 50 54 49.1046 54 48V22C54 20.8954 53.1046 20 52 20H22Z" fill="#3966AE"/>
<path d="M33 50L33.7071 49.2929L33.4142 49H33V50ZM37 54L36.2929 54.7071L37 55.4142L37.7071 54.7071L37 54ZM41 50V49H40.5858L40.2929 49.2929L41 50ZM21 22C21 21.4477 21.4477 21 22 21V19C20.3431 19 19 20.3431 19 22H21ZM21 48V22H19V48H21ZM22 49C21.4477 49 21 48.5523 21 48H19C19 49.6569 20.3431 51 22 51V49ZM33 49H22V51H33V49ZM37.7071 53.2929L33.7071 49.2929L32.2929 50.7071L36.2929 54.7071L37.7071 53.2929ZM40.2929 49.2929L36.2929 53.2929L37.7071 54.7071L41.7071 50.7071L40.2929 49.2929ZM52 49H41V51H52V49ZM53 48C53 48.5523 52.5523 49 52 49V51C53.6569 51 55 49.6569 55 48H53ZM53 22V48H55V22H53ZM52 21C52.5523 21 53 21.4477 53 22H55C55 20.3431 53.6569 19 52 19V21ZM22 21H52V19H22V21Z" fill="#2E528B" mask="url(#path-1-inside-1)"/>
<path d="M33.2812 31.8926H30.668V39H28.9102V31.8926H26.332V30.4688H33.2812V31.8926ZM41.2324 39H39.4746V35.3438H36.0469V39H34.2891V30.4688H36.0469V33.9258H39.4746V30.4688H41.2324V39ZM46.7051 39H45.0117V32.4727L42.9902 33.0996V31.7227L46.5234 30.457H46.7051V39Z" fill="white"/>
</g>
<defs>
<filter id="filter0_d" x="0" y="0" width="74" height="74" filterUnits="userSpaceOnUse" color-interpolation-filters="sRGB">
<feFlood flood-opacity="0" result="BackgroundImageFix"/>
<feColorMatrix in="SourceAlpha" type="matrix" values="0 0 0 0 0 0 0 0 0 0 0 0 0 0 0 0 0 0 127 0"/>
<feMorphology radius="4" operator="dilate" in="SourceAlpha" result="effect1_dropShadow"/>
<feOffset/>
<feGaussianBlur stdDeviation="8"/>
<feColorMatrix type="matrix" values="0 0 0 0 0 0 0 0 0 0 0 0 0 0 0 0 0 0 0.1 0"/>
<feBlend mode="normal" in2="BackgroundImageFix" result="effect1_dropShadow"/>
<feBlend mode="normal" in="SourceGraphic" in2="effect1_dropShadow" result="shape"/>
</filter>
</defs>
</svg>
